<svg width="50" height="46" viewBox="0 0 50 46" fill="none" xmlns="http://www.w3.org/2000/svg">
<path d="M50 24.7502L43.75 10.6072H34.375V3.53575C34.375 1.59109 32.9687 0 31.25 0H3.125C1.40625 0 0 1.59109 0 3.53575V31.8217L3.125 35.3575H7.0875C6.53889 36.4325 6.25004 37.6519 6.25 38.8932C6.24996 40.1346 6.53872 41.3541 7.08726 42.4291C7.6358 43.5041 8.4248 44.3969 9.37493 45.0176C10.3251 45.6382 11.4029 45.965 12.5 45.965C13.5971 45.965 14.6749 45.6382 15.6251 45.0176C16.5752 44.3969 17.3642 43.5041 17.9127 42.4291C18.4613 41.3541 18.75 40.1346 18.75 38.8932C18.75 37.6519 18.4611 36.4325 17.9125 35.3575H35.2125C34.6639 36.4325 34.375 37.6519 34.375 38.8932C34.375 40.1346 34.6637 41.3541 35.2123 42.4291C35.7608 43.5041 36.5498 44.3969 37.4999 45.0176C38.4501 45.6382 39.5279 45.965 40.625 45.965C41.7221 45.965 42.7999 45.6382 43.7501 45.0176C44.7002 44.3969 45.4892 43.5041 46.0377 42.4291C46.5863 41.3541 46.875 40.1346 46.875 38.8932C46.875 37.6519 46.5861 36.4325 46.0375 35.3575H50V24.7502ZM34.375 24.7502V14.143H40.8531L45.5406 24.7502H34.375Z" fill="#42BB73"/>
</svg>
