<svg width="238" height="240" viewBox="0 0 238 240" fill="none" xmlns="http://www.w3.org/2000/svg">
<rect x="30.7072" y="233.571" width="191.655" height="6.42857" rx="3" fill="white"/>
<rect x="122.828" y="100.714" width="80.4738" height="19.2857" rx="7.05882" fill="white" stroke="white"/>
<path d="M163.445 106.386V105.556H165.325V112.786H164.405V106.386H163.445ZM166.778 112.056C167.625 111.376 168.288 110.819 168.768 110.386C169.248 109.946 169.651 109.489 169.978 109.016C170.311 108.536 170.478 108.066 170.478 107.606C170.478 107.172 170.371 106.832 170.158 106.586C169.951 106.332 169.615 106.206 169.148 106.206C168.695 106.206 168.341 106.349 168.088 106.636C167.841 106.916 167.708 107.292 167.688 107.766H166.808C166.835 107.019 167.061 106.442 167.488 106.036C167.915 105.629 168.465 105.426 169.138 105.426C169.825 105.426 170.368 105.616 170.768 105.996C171.175 106.376 171.378 106.899 171.378 107.566C171.378 108.119 171.211 108.659 170.878 109.186C170.551 109.706 170.178 110.166 169.758 110.566C169.338 110.959 168.801 111.419 168.148 111.946H171.588V112.706H166.778V112.056ZM176.366 108.316C176.546 108.002 176.813 107.742 177.166 107.536C177.526 107.322 177.943 107.216 178.416 107.216C178.903 107.216 179.343 107.332 179.736 107.566C180.136 107.799 180.449 108.129 180.676 108.556C180.903 108.976 181.016 109.466 181.016 110.026C181.016 110.579 180.903 111.072 180.676 111.506C180.449 111.939 180.136 112.276 179.736 112.516C179.343 112.756 178.903 112.876 178.416 112.876C177.949 112.876 177.536 112.772 177.176 112.566C176.823 112.352 176.553 112.089 176.366 111.776V115.386H175.456V107.306H176.366V108.316ZM180.086 110.026C180.086 109.612 180.003 109.252 179.836 108.946C179.669 108.639 179.443 108.406 179.156 108.246C178.876 108.086 178.566 108.006 178.226 108.006C177.893 108.006 177.583 108.089 177.296 108.256C177.016 108.416 176.789 108.652 176.616 108.966C176.449 109.272 176.366 109.629 176.366 110.036C176.366 110.449 176.449 110.812 176.616 111.126C176.789 111.432 177.016 111.669 177.296 111.836C177.583 111.996 177.893 112.076 178.226 112.076C178.566 112.076 178.876 111.996 179.156 111.836C179.443 111.669 179.669 111.432 179.836 111.126C180.003 110.812 180.086 110.446 180.086 110.026ZM181.874 110.036C181.874 109.469 181.987 108.976 182.214 108.556C182.441 108.129 182.754 107.799 183.154 107.566C183.561 107.332 184.024 107.216 184.544 107.216C185.217 107.216 185.771 107.379 186.204 107.706C186.644 108.032 186.934 108.486 187.074 109.066H186.094C186.001 108.732 185.817 108.469 185.544 108.276C185.277 108.082 184.944 107.986 184.544 107.986C184.024 107.986 183.604 108.166 183.284 108.526C182.964 108.879 182.804 109.382 182.804 110.036C182.804 110.696 182.964 111.206 183.284 111.566C183.604 111.926 184.024 112.106 184.544 112.106C184.944 112.106 185.277 112.012 185.544 111.826C185.811 111.639 185.994 111.372 186.094 111.026H187.074C186.927 111.586 186.634 112.036 186.194 112.376C185.754 112.709 185.204 112.876 184.544 112.876C184.024 112.876 183.561 112.759 183.154 112.526C182.754 112.292 182.441 111.962 182.214 111.536C181.987 111.109 181.874 110.609 181.874 110.036ZM190.228 112.876C189.808 112.876 189.431 112.806 189.098 112.666C188.765 112.519 188.501 112.319 188.308 112.066C188.115 111.806 188.008 111.509 187.988 111.176H188.928C188.955 111.449 189.081 111.672 189.308 111.846C189.541 112.019 189.845 112.106 190.218 112.106C190.565 112.106 190.838 112.029 191.038 111.876C191.238 111.722 191.338 111.529 191.338 111.296C191.338 111.056 191.231 110.879 191.018 110.766C190.805 110.646 190.475 110.529 190.028 110.416C189.621 110.309 189.288 110.202 189.028 110.096C188.775 109.982 188.555 109.819 188.368 109.606C188.188 109.386 188.098 109.099 188.098 108.746C188.098 108.466 188.181 108.209 188.348 107.976C188.515 107.742 188.751 107.559 189.058 107.426C189.365 107.286 189.715 107.216 190.108 107.216C190.715 107.216 191.205 107.369 191.578 107.676C191.951 107.982 192.151 108.402 192.178 108.936H191.268C191.248 108.649 191.131 108.419 190.918 108.246C190.711 108.072 190.431 107.986 190.078 107.986C189.751 107.986 189.491 108.056 189.298 108.196C189.105 108.336 189.008 108.519 189.008 108.746C189.008 108.926 189.065 109.076 189.178 109.196C189.298 109.309 189.445 109.402 189.618 109.476C189.798 109.542 190.045 109.619 190.358 109.706C190.751 109.812 191.071 109.919 191.318 110.026C191.565 110.126 191.775 110.279 191.948 110.486C192.128 110.692 192.221 110.962 192.228 111.296C192.228 111.596 192.145 111.866 191.978 112.106C191.811 112.346 191.575 112.536 191.268 112.676C190.968 112.809 190.621 112.876 190.228 112.876Z" fill="white"/>
<path fill-rule="evenodd" clip-rule="evenodd" d="M107.442 73.5675C110.195 73.5675 112.473 75.5995 113.401 78.1915C114.223 80.4861 115.363 82.5986 116.786 84.4173C119.926 88.4297 124.184 90.6838 128.625 90.6838C133.065 90.6838 137.323 88.4297 140.463 84.4173C141.886 82.599 143.026 80.487 143.848 78.1929C144.776 75.6001 147.055 73.5675 149.809 73.5675C151.054 73.5675 152.205 73.9738 153.135 74.6612C154.534 75.6945 156.15 76.7375 157.64 77.634V77.634L177.986 89.8731C180.733 91.5259 182.062 95.3048 180.954 98.3135L173.559 118.39C172.45 121.399 169.325 122.498 166.577 120.845L162.012 118.099C159.11 116.353 155.413 118.443 155.413 121.83V170.459C155.413 173.665 152.814 176.264 149.608 176.264H107.645C104.438 176.264 101.839 173.665 101.839 170.459V121.988C101.839 118.562 98.066 116.478 95.1664 118.302L90.9525 120.954C88.2387 122.661 85.1043 121.62 83.9517 118.628L76.2941 98.7506C75.1415 95.7586 76.4071 91.949 79.121 90.2416L99.3337 77.5247C99.406 77.4793 99.4785 77.4358 99.5512 77.3942C101.109 76.5044 102.846 75.4995 104.339 74.5046C105.227 73.9126 106.294 73.5675 107.442 73.5675Z" fill="white"/>
<path d="M113.401 78.1915L112.93 78.36L112.93 78.36L113.401 78.1915ZM116.786 84.4173L116.393 84.7254L116.393 84.7254L116.786 84.4173ZM140.463 84.4173L140.857 84.7254L140.857 84.7254L140.463 84.4173ZM143.848 78.1929L144.318 78.3615L144.318 78.3615L143.848 78.1929ZM177.986 89.8731L178.244 89.4447L178.244 89.4447L177.986 89.8731ZM180.954 98.3135L181.423 98.4863L181.423 98.4863L180.954 98.3135ZM173.559 118.39L173.089 118.218L173.089 118.218L173.559 118.39ZM166.577 120.845L166.319 121.274L166.319 121.274L166.577 120.845ZM90.9525 120.954L90.6863 120.53L90.6863 120.53L90.9525 120.954ZM83.9517 118.628L84.4182 118.448L84.4182 118.448L83.9517 118.628ZM76.2941 98.7506L76.7607 98.5708L76.7607 98.5708L76.2941 98.7506ZM79.121 90.2416L78.8547 89.8184L78.8547 89.8184L79.121 90.2416ZM99.3337 77.5247L99.0675 77.1015L99.3337 77.5247ZM104.339 74.5046L104.062 74.0885L104.339 74.5046ZM95.1664 118.302L94.9002 117.879L95.1664 118.302ZM153.135 74.6612L152.838 75.0634L153.135 74.6612ZM157.64 77.634L157.383 78.0624L157.383 78.0624L157.64 77.634ZM113.872 78.0229C112.891 75.2853 110.458 73.0675 107.442 73.0675V74.0675C109.933 74.0675 112.054 75.9137 112.93 78.36L113.872 78.0229ZM117.18 84.1092C115.793 82.336 114.677 80.2716 113.872 78.0229L112.93 78.36C113.768 80.7007 114.934 82.8611 116.393 84.7254L117.18 84.1092ZM128.625 90.1838C124.362 90.1838 120.241 88.0206 117.18 84.1092L116.393 84.7254C119.611 88.8387 124.007 91.1838 128.625 91.1838V90.1838ZM140.069 84.1092C137.008 88.0206 132.887 90.1838 128.625 90.1838V91.1838C133.242 91.1838 137.638 88.8387 140.857 84.7254L140.069 84.1092ZM143.377 78.0243C142.572 80.2724 141.456 82.3364 140.069 84.1092L140.857 84.7254C142.315 82.8615 143.48 80.7016 144.318 78.3615L143.377 78.0243ZM149.809 73.0675C146.792 73.0675 144.358 75.2859 143.377 78.0243L144.318 78.3615C145.195 75.9143 147.317 74.0675 149.809 74.0675V73.0675ZM153.432 74.259C152.419 73.5103 151.165 73.0675 149.809 73.0675V74.0675C150.944 74.0675 151.991 74.4374 152.838 75.0634L153.432 74.259ZM157.383 78.0624L177.728 90.3016L178.244 89.4447L157.898 77.2055L157.383 78.0624ZM177.728 90.3016C180.27 91.8307 181.51 95.3572 180.485 98.1406L181.423 98.4863C182.614 95.2524 181.197 91.2212 178.244 89.4447L177.728 90.3016ZM180.485 98.1406L173.089 118.218L174.028 118.563L181.423 98.4863L180.485 98.1406ZM173.089 118.218C172.583 119.593 171.629 120.503 170.517 120.894C169.405 121.285 168.091 121.173 166.835 120.417L166.319 121.274C167.811 122.171 169.434 122.335 170.848 121.838C172.263 121.34 173.426 120.196 174.028 118.563L173.089 118.218ZM166.835 120.417L162.269 117.671L161.754 118.527L166.319 121.274L166.835 120.417ZM155.913 170.459V121.83H154.913V170.459H155.913ZM149.608 176.764C153.09 176.764 155.913 173.941 155.913 170.459H154.913C154.913 173.389 152.538 175.764 149.608 175.764V176.764ZM107.645 176.764H149.608V175.764H107.645V176.764ZM101.339 170.459C101.339 173.941 104.162 176.764 107.645 176.764V175.764C104.715 175.764 102.339 173.389 102.339 170.459H101.339ZM101.339 121.988V170.459H102.339V121.988H101.339ZM91.2188 121.377L95.4327 118.726L94.9002 117.879L90.6863 120.53L91.2188 121.377ZM83.4851 118.808C84.1106 120.431 85.2887 121.556 86.709 122.027C88.1293 122.499 89.746 122.303 91.2188 121.377L90.6863 120.53C89.4452 121.311 88.1378 121.448 87.0243 121.078C85.9107 120.709 84.9453 119.816 84.4182 118.448L83.4851 118.808ZM75.8276 98.9303L83.4851 118.808L84.4182 118.448L76.7607 98.5708L75.8276 98.9303ZM78.8547 89.8184C75.9386 91.6531 74.589 95.7153 75.8276 98.9303L76.7607 98.5708C75.694 95.8019 76.8757 92.245 79.3872 90.6648L78.8547 89.8184ZM99.0675 77.1015L78.8547 89.8184L79.3872 90.6648L99.6 77.9479L99.0675 77.1015ZM99.3033 76.96C99.2243 77.0051 99.1457 77.0523 99.0675 77.1015L99.6 77.9479C99.6662 77.9062 99.7327 77.8664 99.7992 77.8284L99.3033 76.96ZM107.442 73.0675C106.193 73.0675 105.03 73.4435 104.062 74.0885L104.616 74.9206C105.425 74.3817 106.396 74.0675 107.442 74.0675V73.0675ZM99.7992 77.8284C101.356 76.9391 103.107 75.9264 104.616 74.9206L104.062 74.0885C102.585 75.0727 100.862 76.0698 99.3033 76.96L99.7992 77.8284ZM102.339 121.988C102.339 118.169 98.1327 115.845 94.9002 117.879L95.4327 118.726C97.9993 117.111 101.339 118.956 101.339 121.988H102.339ZM162.269 117.671C159.034 115.724 154.913 118.054 154.913 121.83H155.913C155.913 118.832 159.185 116.982 161.754 118.527L162.269 117.671ZM152.838 75.0634C154.254 76.109 155.884 77.1609 157.383 78.0624L157.898 77.2055C156.416 76.3141 154.814 75.28 153.432 74.259L152.838 75.0634Z" fill="white"/>
<rect x="110.606" y="85.1377" width="11.4576" height="13.2497" rx="2.3222" fill="white" stroke="white"/>
<rect x="78.3558" y="120" width="40.2369" height="9.64286" rx="4.82143" fill="white" stroke="white"/>
<rect x="78.3558" y="110.357" width="40.2369" height="9.64286" rx="4.82143" fill="white" stroke="white"/>
<path d="M113.771 100.714H83.1773C80.5145 100.714 78.3558 102.873 78.3558 105.536C78.3558 108.199 80.5145 110.357 83.1773 110.357H113.771C116.434 110.357 118.593 108.199 118.593 105.536C118.593 102.873 116.434 100.714 113.771 100.714Z" fill="white" stroke="white"/>
<path d="M58.2375 33.2144L58.2375 131.786" stroke="white" stroke-linecap="round" stroke-linejoin="round" stroke-dasharray="2 5"/>
<path d="M75.8064 18.2488C75.8064 28.0568 67.9503 35.9977 58.2716 35.9977C48.5929 35.9977 40.7367 28.0568 40.7367 18.2488C40.7367 8.44085 48.5929 0.5 58.2716 0.5C67.9503 0.5 75.8064 8.44085 75.8064 18.2488Z" fill="white" stroke="white"/>
<mask id="path-12-inside-1_698_414" fill="white">
<path fill-rule="evenodd" clip-rule="evenodd" d="M80.9626 3.04516C79.9559 2.02467 78.3256 2.02655 77.3213 3.04936L58.5394 22.177L49.8975 13.3879C48.8925 12.3657 47.2611 12.3638 46.2538 13.3836C45.2464 14.4035 45.2445 16.0588 46.2495 17.0809L56.4996 27.5056C56.5875 27.595 56.6802 27.6766 56.7768 27.7504C57.7861 28.734 59.389 28.7199 60.3812 27.7095L80.9668 6.74489C81.9712 5.72207 81.9692 4.06565 80.9626 3.04516Z"/>
</mask>
<path fill-rule="evenodd" clip-rule="evenodd" d="M80.9626 3.04516C79.9559 2.02467 78.3256 2.02655 77.3213 3.04936L58.5394 22.177L49.8975 13.3879C48.8925 12.3657 47.2611 12.3638 46.2538 13.3836C45.2464 14.4035 45.2445 16.0588 46.2495 17.0809L56.4996 27.5056C56.5875 27.595 56.6802 27.6766 56.7768 27.7504C57.7861 28.734 59.389 28.7199 60.3812 27.7095L80.9668 6.74489C81.9712 5.72207 81.9692 4.06565 80.9626 3.04516Z" fill="white"/>
<path d="M77.3214 3.04935L78.0349 3.74998L78.0349 3.74998L77.3214 3.04935ZM80.9626 3.04514L81.6745 2.34287L80.9626 3.04514ZM58.5395 22.177L57.8264 22.8781L58.54 23.6038L59.253 22.8776L58.5395 22.177ZM49.8976 13.3878L50.6106 12.6867L50.6106 12.6867L49.8976 13.3878ZM46.2539 13.3836L45.5424 12.6809L45.5424 12.6809L46.2539 13.3836ZM46.2496 17.0809L45.5365 17.782L45.5365 17.782L46.2496 17.0809ZM56.4997 27.5056L57.2128 26.8045L57.2127 26.8045L56.4997 27.5056ZM56.7769 27.7504L57.4749 27.0342L57.4317 26.9921L57.3838 26.9556L56.7769 27.7504ZM60.3812 27.7095L59.6677 27.0088L59.6677 27.0088L60.3812 27.7095ZM80.9669 6.74487L81.6804 7.4455L81.6804 7.4455L80.9669 6.74487ZM78.0349 3.74998C78.6479 3.12568 79.6363 3.12454 80.2507 3.74742L81.6745 2.34287C80.2756 0.924769 78.0035 0.927391 76.6078 2.34872L78.0349 3.74998ZM59.253 22.8776L78.0349 3.74998L76.6078 2.34872L57.8259 21.4763L59.253 22.8776ZM59.2525 21.4758L50.6106 12.6867L49.1845 14.089L57.8264 22.8781L59.2525 21.4758ZM50.6106 12.6867C49.2144 11.2667 46.9419 11.2641 45.5424 12.6809L46.9653 14.0864C47.5805 13.4636 48.5707 13.4647 49.1845 14.089L50.6106 12.6867ZM45.5424 12.6809C44.1509 14.0896 44.1483 16.3701 45.5365 17.782L46.9626 16.3798C46.3408 15.7474 46.342 14.7173 46.9653 14.0864L45.5424 12.6809ZM45.5365 17.782L55.7866 28.2067L57.2127 26.8045L46.9626 16.3798L45.5365 17.782ZM55.7866 28.2067C55.9077 28.3299 56.0359 28.4428 56.1701 28.5452L57.3838 26.9556C57.3247 26.9104 57.2675 26.8602 57.2128 26.8045L55.7866 28.2067ZM59.6677 27.0088C59.0621 27.6256 58.0902 27.6339 57.4749 27.0342L56.079 28.4665C57.4821 29.834 59.7161 29.8141 61.0948 28.4101L59.6677 27.0088ZM80.2534 6.04424L59.6677 27.0088L61.0948 28.4101L81.6804 7.4455L80.2534 6.04424ZM80.2507 3.74742C80.8739 4.37916 80.8751 5.41107 80.2534 6.04424L81.6804 7.4455C83.0674 6.03305 83.0647 3.75211 81.6745 2.34287L80.2507 3.74742Z" fill="white" mask="url(#path-12-inside-1_698_414)"/>
<path d="M75.8064 92.1774C75.8064 101.985 67.9503 109.926 58.2716 109.926C48.5929 109.926 40.7367 101.985 40.7367 92.1774C40.7367 82.3694 48.5929 74.4286 58.2716 74.4286C67.9503 74.4286 75.8064 82.3694 75.8064 92.1774Z" fill="white" stroke="white"/>
<ellipse cx="50.962" cy="94.424" rx="2.25436" ry="2.28111" fill="white"/>
<ellipse cx="58.4764" cy="94.424" rx="2.25436" ry="2.28111" fill="white"/>
<ellipse cx="65.9908" cy="94.424" rx="2.25436" ry="2.28111" fill="white"/>
<rect x="33.8835" y="129.643" width="169.163" height="20.1377" rx="4.70588" fill="white" stroke="white"/>
<path d="M43.4133 146.786H193.772V209.314C193.772 217.977 186.749 225 178.086 225H59.0996C50.4363 225 43.4133 217.977 43.4133 209.314V146.786Z" fill="white" stroke="white"/>
<rect x="72.5284" y="163.706" width="11.549" height="17.8235" rx="5.77451" fill="white" stroke="white"/>
<rect x="99.3035" y="163.706" width="11.549" height="17.8235" rx="5.77451" fill="white" stroke="white"/>
<rect x="126.078" y="163.706" width="11.549" height="17.8235" rx="5.77451" fill="white" stroke="white"/>
<rect x="152.853" y="163.706" width="11.549" height="17.8235" rx="5.77451" fill="white" stroke="white"/>
<rect x="85.7959" y="190.556" width="11.549" height="17.8235" rx="5.77451" fill="white" stroke="white"/>
<rect x="110.894" y="190.556" width="11.549" height="17.8235" rx="5.77451" fill="white" stroke="white"/>
<rect x="135.992" y="190.556" width="11.549" height="17.8235" rx="5.77451" fill="white" stroke="white"/>
<rect x="0.1162" y="-0.701484" width="12.8208" height="71.5689" rx="6" transform="matrix(0.809895 -0.586574 -0.577496 -0.816394 225.611 198.418)" fill="white" stroke="white"/>
<rect x="-0.1162" y="-0.701484" width="12.8208" height="71.5689" rx="6" transform="matrix(-0.809895 -0.586574 0.577496 -0.816394 11.3882 198.282)" fill="white" stroke="white"/>
</svg>
