<svg width="42" height="52" viewBox="0 0 42 52" fill="none" xmlns="http://www.w3.org/2000/svg">
<path d="M16.8025 35.7223L22.7284 38.5C22.7284 38.5 37.5432 34.3334 39.5185 34.3334C41.4938 34.3334 41.4938 37.1111 39.5185 39.8889C37.5432 42.6667 30.6296 51 24.7037 51C18.7778 51 14.8272 46.8333 10.8765 46.8333H1" stroke="#42BB73" stroke-width="2" stroke-linecap="round" stroke-linejoin="round"/>
<path d="M12.8519 14.8889V3.77777C12.8519 3.04106 13.06 2.33452 13.4304 1.81359C13.8008 1.29266 14.3033 1 14.8272 1H38.5309C39.0547 1 39.5572 1.29266 39.9276 1.81359C40.2981 2.33452 40.5062 3.04106 40.5062 3.77777V25.9999M1 30.1666C2.97531 27.3888 6.92593 23.2222 10.8765 23.2222C14.8272 23.2222 24.2099 28.7777 25.6914 31.5555C27.1728 34.3333 22.7284 38.4999 22.7284 38.4999L1 30.1666Z" stroke="#42BB73" stroke-width="2" stroke-linecap="round" stroke-linejoin="round"/>
<path d="M21.7407 1H31.6173V13.5H21.7407V1Z" stroke="#42BB73" stroke-width="2" stroke-linecap="round" stroke-linejoin="round"/>
</svg>
