<svg width="40" height="50" viewBox="0 0 40 50" fill="none" xmlns="http://www.w3.org/2000/svg">
<path d="M12.9032 37.0892L27.0968 22.8873C29.0518 24.8435 30.0293 27.2105 30.0293 29.9883C30.0293 32.766 29.0518 35.133 27.0968 37.0892C25.1417 39.0454 22.7761 40.0235 20 40.0235C17.2239 40.0235 14.8583 39.0454 12.9032 37.0892ZM35.0733 0C36.4027 0 37.5562 0.489045 38.5337 1.46714C39.5112 2.44523 40 3.59937 40 4.92958V45.0704C40 46.4006 39.5112 47.5548 38.5337 48.5329C37.5562 49.511 36.4027 50 35.0733 50H5.04399C3.63636 50 2.44379 49.511 1.46628 48.5329C0.488759 47.5548 0 46.4006 0 45.0704V4.92958C0 3.59937 0.488759 2.44523 1.46628 1.46714C2.44379 0.489045 3.63636 0 5.04399 0H35.0733ZM15.0147 4.92958C14.3109 4.92958 13.7243 5.18388 13.2551 5.69249C12.7859 6.2011 12.5513 6.78795 12.5513 7.45305C12.5513 8.11815 12.7859 8.70501 13.2551 9.21361C13.7243 9.72222 14.3109 9.97653 15.0147 9.97653C15.7185 9.97653 16.305 9.72222 16.7742 9.21361C17.2434 8.70501 17.478 8.11815 17.478 7.45305C17.478 6.78795 17.2434 6.2011 16.7742 5.69249C16.305 5.18388 15.7185 4.92958 15.0147 4.92958ZM7.50733 4.92958C6.80352 4.92958 6.21701 5.18388 5.7478 5.69249C5.27859 6.2011 5.04399 6.78795 5.04399 7.45305C5.04399 8.11815 5.27859 8.70501 5.7478 9.21361C6.21701 9.72222 6.80352 9.97653 7.50733 9.97653C8.21114 9.97653 8.79765 9.72222 9.26686 9.21361C9.73607 8.70501 9.97067 8.11815 9.97067 7.45305C9.97067 6.78795 9.73607 6.2011 9.26686 5.69249C8.79765 5.18388 8.21114 4.92958 7.50733 4.92958ZM20.0587 45.0704C24.2033 45.0704 27.7419 43.6033 30.6745 40.669C33.607 37.7347 35.0733 34.1941 35.0733 30.0469C35.0733 25.8998 33.607 22.3592 30.6745 19.4249C27.7419 16.4906 24.2033 15.0235 20.0587 15.0235C15.914 15.0235 12.3754 16.4906 9.44282 19.4249C6.51026 22.3592 5.04399 25.8998 5.04399 30.0469C5.04399 34.1941 6.51026 37.7347 9.44282 40.669C12.3754 43.6033 15.914 45.0704 20.0587 45.0704Z" fill="#42BB73"/>
</svg>
