<svg width="49" height="45" viewBox="0 0 49 45" fill="none" xmlns="http://www.w3.org/2000/svg">
<path d="M23.8504 11.6742L8.16731 26.9287V43.3927C8.16731 43.819 8.3107 44.2278 8.56594 44.5292C8.82118 44.8307 9.16736 45 9.52832 45L19.0605 44.9709C19.4202 44.9687 19.7647 44.7985 20.0184 44.4973C20.2722 44.1961 20.4147 43.7884 20.4147 43.3635V33.7487C20.4147 33.3225 20.5581 32.9136 20.8133 32.6122C21.0685 32.3108 21.4147 32.1414 21.7757 32.1414H27.2197C27.5807 32.1414 27.9268 32.3108 28.1821 32.6122C28.4373 32.9136 28.5807 33.3225 28.5807 33.7487V43.3565C28.5801 43.568 28.6149 43.7776 28.6831 43.9732C28.7512 44.1687 28.8514 44.3465 28.9778 44.4963C29.1043 44.6461 29.2545 44.7649 29.4199 44.846C29.5853 44.9271 29.7626 44.9689 29.9417 44.9689L39.4705 45C39.8314 45 40.1776 44.8307 40.4328 44.5292C40.6881 44.2278 40.8315 43.819 40.8315 43.3927V26.9176L25.1518 11.6742C24.9675 11.4987 24.7379 11.403 24.5011 11.403C24.2643 11.403 24.0347 11.4987 23.8504 11.6742V11.6742ZM48.6232 22.0424L41.512 15.1199V1.20549C41.512 0.885775 41.4044 0.579154 41.213 0.353081C41.0216 0.127007 40.7619 0 40.4912 0H35.7277C35.457 0 35.1973 0.127007 35.0059 0.353081C34.8145 0.579154 34.7069 0.885775 34.7069 1.20549V8.49972L27.0913 1.10001C26.3604 0.389755 25.4433 0.00141981 24.4968 0.00141981C23.5504 0.00141981 22.6333 0.389755 21.9024 1.10001L0.370448 22.0424C0.267086 22.1433 0.18157 22.2673 0.118787 22.4072C0.0560036 22.5471 0.0171834 22.7003 0.00454419 22.858C-0.00809497 23.0156 0.00569467 23.1747 0.0451252 23.3261C0.0845557 23.4774 0.148854 23.6181 0.234347 23.7401L2.40345 26.8543C2.48871 26.9768 2.59358 27.0781 2.71206 27.1527C2.83053 27.2272 2.96029 27.2733 3.0939 27.2886C3.22751 27.3038 3.36234 27.2877 3.49069 27.2413C3.61904 27.1949 3.73837 27.119 3.84186 27.0181L23.8504 7.55542C24.0347 7.37995 24.2643 7.28425 24.5011 7.28425C24.7379 7.28425 24.9675 7.37995 25.1518 7.55542L45.1612 27.0181C45.2645 27.119 45.3836 27.195 45.5118 27.2415C45.64 27.2881 45.7746 27.3044 45.9081 27.2895C46.0416 27.2745 46.1714 27.2287 46.2898 27.1546C46.4083 27.0804 46.5133 26.9794 46.5987 26.8574L48.7678 23.7432C48.8532 23.6204 48.9173 23.479 48.9562 23.327C48.9952 23.175 49.0083 23.0153 48.9949 22.8573C48.9815 22.6992 48.9417 22.5459 48.8779 22.406C48.8141 22.2662 48.7276 22.1426 48.6232 22.0424V22.0424Z" fill="#42BB73"/>
</svg>
